<?xml version="1.0" standalone="no"?>
<!DOCTYPE svg PUBLIC "-//W3C//DTD SVG 20010904//EN"
 "http://www.w3.org/TR/2001/REC-SVG-20010904/DTD/svg10.dtd">
<svg version="1.0" xmlns="http://www.w3.org/2000/svg"
 width="1024.000000pt" height="1024.000000pt" viewBox="0 0 1024.000000 1024.000000"
 preserveAspectRatio="xMidYMid meet">

<g transform="translate(0.000000,1024.000000) scale(0.100000,-0.100000)"
fill="#000000" stroke="none">
<path d="M4348 10135 c-580 -60 -1185 -238 -1763 -519 -323 -157 -576 -308
-743 -441 -88 -71 -114 -109 -106 -156 40 -221 298 -742 693 -1399 l63 -105
540 -245 c297 -135 543 -244 547 -243 3 1 159 91 346 201 187 110 342 198 344
196 15 -14 -229 -386 -363 -553 -257 -321 -496 -531 -1007 -891 -90 -63 -188
-138 -218 -167 l-54 -52 6 -168 c7 -197 35 -442 118 -1013 101 -706 138 -933
151 -946 7 -7 267 -157 578 -334 311 -177 575 -329 588 -337 23 -14 23 -14
-55 -97 -200 -214 -331 -470 -389 -761 -28 -136 -25 -425 4 -562 139 -645 656
-1117 1317 -1204 127 -16 393 -6 517 20 605 130 1062 585 1194 1191 29 134 27
449 -4 589 -58 259 -171 483 -343 682 l-49 57 65 38 c36 21 65 42 65 46 0 43
-268 190 -457 251 -104 34 -255 68 -367 82 l-49 7 120 62 c146 77 233 132 233
148 0 11 -194 832 -206 870 -3 12 5 19 33 28 136 45 445 234 668 409 546 429
961 940 1189 1463 155 355 220 665 219 1038 0 230 -20 395 -73 605 -47 187
-250 586 -442 870 -521 770 -1206 1206 -2088 1331 -161 22 -638 28 -822 9z
m614 -480 c205 -31 361 -81 563 -181 200 -98 310 -178 485 -354 202 -202 340
-389 386 -523 155 -449 136 -932 -53 -1417 -173 -442 -470 -867 -923 -1321
-219 -219 -408 -386 -641 -565 -133 -102 -436 -318 -459 -326 -5 -2 16 -144
50 -333 33 -181 60 -337 60 -345 0 -12 -144 -67 -545 -209 -300 -107 -548
-192 -551 -189 -3 3 -63 365 -134 804 -71 440 -131 811 -134 827 -3 15 -1 27
5 27 23 0 147 55 209 93 492 301 1450 1401 1686 1937 55 127 66 179 53 265
-36 231 -169 375 -404 441 -93 26 -356 31 -508 9 -318 -45 -684 -168 -1061
-356 -88 -44 -162 -76 -165 -72 -32 43 -87 140 -223 387 -88 159 -193 345
-234 413 l-73 123 87 59 c719 482 1410 765 2007 820 129 12 393 5 517 -14z
m221 -6789 c175 -52 293 -121 413 -240 124 -125 223 -299 266 -472 32 -127 32
-351 0 -477 -48 -193 -130 -337 -272 -477 -114 -113 -217 -178 -357 -226 -344
-117 -703 -32 -962 227 -123 123 -205 262 -258 438 -37 122 -44 343 -15 481
71 347 315 624 646 735 111 37 167 44 316 40 109 -2 152 -8 223 -29z"/>
</g>
</svg>
